<?xml version="1.0" encoding="UTF-8" standalone="no"?>
<!DOCTYPE svg PUBLIC "-//W3C//DTD SVG 1.1//EN"
 "http://www.w3.org/Graphics/SVG/1.1/DTD/svg11.dtd">
<!-- Generated by graphviz version 2.43.0 (0)
 -->
<!-- Title: Architecture Pages: 1 -->
<svg width="1140pt" height="684pt"
 viewBox="0.00 0.00 1140.10 683.60" xmlns="http://www.w3.org/2000/svg" xmlns:xlink="http://www.w3.org/1999/xlink">
<g id="graph0" class="graph" transform="scale(1 1) rotate(0) translate(28.8 654.8)">
<title>Architecture</title>
<polygon fill="white" stroke="transparent" points="-28.8,28.8 -28.8,-654.8 1111.3,-654.8 1111.3,28.8 -28.8,28.8"/>
<g id="clust1" class="cluster">
<title>cluster_clients</title>
<path fill="white" stroke="#b9c2cc" d="M41.5,-431C41.5,-431 254.5,-431 254.5,-431 260.5,-431 266.5,-437 266.5,-443 266.5,-443 266.5,-589 266.5,-589 266.5,-595 260.5,-601 254.5,-601 254.5,-601 41.5,-601 41.5,-601 35.5,-601 29.5,-595 29.5,-589 29.5,-589 29.5,-443 29.5,-443 29.5,-437 35.5,-431 41.5,-431"/>
<text text-anchor="middle" x="148" y="-586.6" font-family="Helvetica,sans-Serif" font-size="13.00">Clients</text>
</g>
<g id="clust2" class="cluster">
<title>cluster_api_tier</title>
<path fill="white" stroke="#b9c2cc" d="M457.5,-411C457.5,-411 704.5,-411 704.5,-411 710.5,-411 716.5,-417 716.5,-423 716.5,-423 716.5,-596 716.5,-596 716.5,-602 710.5,-608 704.5,-608 704.5,-608 457.5,-608 457.5,-608 451.5,-608 445.5,-602 445.5,-596 445.5,-596 445.5,-423 445.5,-423 445.5,-417 451.5,-411 457.5,-411"/>
<text text-anchor="middle" x="581" y="-593.6" font-family="Helvetica,sans-Serif" font-size="13.00">Stateless API Tier (horizontally scaled)</text>
</g>
<g id="clust3" class="cluster">
<title>cluster_control</title>
<path fill="white" stroke="#b9c2cc" d="M504.5,-305C504.5,-305 656.5,-305 656.5,-305 662.5,-305 668.5,-311 668.5,-317 668.5,-317 668.5,-391 668.5,-391 668.5,-397 662.5,-403 656.5,-403 656.5,-403 504.5,-403 504.5,-403 498.5,-403 492.5,-397 492.5,-391 492.5,-391 492.5,-317 492.5,-317 492.5,-311 498.5,-305 504.5,-305"/>
<text text-anchor="middle" x="580.5" y="-388.6" font-family="Helvetica,sans-Serif" font-size="13.00">Control Plane</text>
</g>
<g id="clust4" class="cluster">
<title>cluster_workers</title>
<path fill="white" stroke="#b9c2cc" d="M12,-8C12,-8 284,-8 284,-8 290,-8 296,-14 296,-20 296,-20 296,-252 296,-252 296,-258 290,-264 284,-264 284,-264 12,-264 12,-264 6,-264 0,-258 0,-252 0,-252 0,-20 0,-20 0,-14 6,-8 12,-8"/>
<text text-anchor="middle" x="148" y="-249.6" font-family="Helvetica,sans-Serif" font-size="13.00">Worker Pool (horizontally scaled, sharded)</text>
</g>
<g id="clust5" class="cluster">
<title>cluster_data</title>
<path fill="white" stroke="#b9c2cc" d="M887.5,-209C887.5,-209 1062.5,-209 1062.5,-209 1068.5,-209 1074.5,-215 1074.5,-221 1074.5,-221 1074.5,-474 1074.5,-474 1074.5,-480 1068.5,-486 1062.5,-486 1062.5,-486 887.5,-486 887.5,-486 881.5,-486 875.5,-480 875.5,-474 875.5,-474 875.5,-221 875.5,-221 875.5,-215 881.5,-209 887.5,-209"/>
<text text-anchor="middle" x="975" y="-471.6" font-family="Helvetica,sans-Serif" font-size="13.00">Data Plane</text>
</g>
<!-- Dashboard -->
<g id="node1" class="node">
<title>Dashboard</title>
<path fill="#e9f1ff" stroke="#5b6472" stroke-width="1.2" d="M246.5,-571C246.5,-571 49.5,-571 49.5,-571 43.5,-571 37.5,-565 37.5,-559 37.5,-559 37.5,-537 37.5,-537 37.5,-531 43.5,-525 49.5,-525 49.5,-525 246.5,-525 246.5,-525 252.5,-525 258.5,-531 258.5,-537 258.5,-537 258.5,-559 258.5,-559 258.5,-565 252.5,-571 246.5,-571"/>
<text text-anchor="middle" x="148" y="-551.4" font-family="Helvetica,sans-Serif" font-size="12.00">React Dashboard</text>
<text text-anchor="middle" x="148" y="-538.4" font-family="Helvetica,sans-Serif" font-size="12.00">(Queues / Jobs / Workers / DLQ)</text>
</g>
<!-- API1 -->
<g id="node3" class="node">
<title>API1</title>
<path fill="#f4f6f8" stroke="#5b6472" stroke-width="1.2" d="M631.5,-577.5C631.5,-577.5 529.5,-577.5 529.5,-577.5 523.5,-577.5 517.5,-571.5 517.5,-565.5 517.5,-565.5 517.5,-530.5 517.5,-530.5 517.5,-524.5 523.5,-518.5 529.5,-518.5 529.5,-518.5 631.5,-518.5 631.5,-518.5 637.5,-518.5 643.5,-524.5 643.5,-530.5 643.5,-530.5 643.5,-565.5 643.5,-565.5 643.5,-571.5 637.5,-577.5 631.5,-577.5"/>
<text text-anchor="middle" x="580.5" y="-557.9" font-family="Helvetica,sans-Serif" font-size="12.00">API Node 1</text>
<text text-anchor="middle" x="580.5" y="-544.9" font-family="Helvetica,sans-Serif" font-size="12.00">Express + REST</text>
<text text-anchor="middle" x="580.5" y="-531.9" font-family="Helvetica,sans-Serif" font-size="12.00">+ Socket.io</text>
</g>
<!-- Dashboard&#45;&gt;API1 -->
<g id="edge1" class="edge">
<title>Dashboard&#45;&gt;API1</title>
<path fill="none" stroke="#5c6c7c" d="M258.54,-548C258.54,-548 507.45,-548 507.45,-548"/>
<polygon fill="#5c6c7c" stroke="#5c6c7c" points="507.45,-551.5 517.45,-548 507.45,-544.5 507.45,-551.5"/>
<text text-anchor="middle" x="370.5" y="-618" font-family="Helvetica,sans-Serif" font-size="10.00" fill="#33404d">HTTPS + WebSocket</text>
</g>
<!-- APIClient -->
<g id="node2" class="node">
<title>APIClient</title>
<path fill="#e9f1ff" stroke="#5b6472" stroke-width="1.2" d="M232,-485C232,-485 64,-485 64,-485 58,-485 52,-479 52,-473 52,-473 52,-451 52,-451 52,-445 58,-439 64,-439 64,-439 232,-439 232,-439 238,-439 244,-445 244,-451 244,-451 244,-473 244,-473 244,-479 238,-485 232,-485"/>
<text text-anchor="middle" x="148" y="-465.4" font-family="Helvetica,sans-Serif" font-size="12.00">External API Clients</text>
<text text-anchor="middle" x="148" y="-452.4" font-family="Helvetica,sans-Serif" font-size="12.00">(services enqueueing jobs)</text>
</g>
<!-- API2 -->
<g id="node4" class="node">
<title>API2</title>
<path fill="#f4f6f8" stroke="#5b6472" stroke-width="1.2" d="M631.5,-478.5C631.5,-478.5 529.5,-478.5 529.5,-478.5 523.5,-478.5 517.5,-472.5 517.5,-466.5 517.5,-466.5 517.5,-431.5 517.5,-431.5 517.5,-425.5 523.5,-419.5 529.5,-419.5 529.5,-419.5 631.5,-419.5 631.5,-419.5 637.5,-419.5 643.5,-425.5 643.5,-431.5 643.5,-431.5 643.5,-466.5 643.5,-466.5 643.5,-472.5 637.5,-478.5 631.5,-478.5"/>
<text text-anchor="middle" x="580.5" y="-458.9" font-family="Helvetica,sans-Serif" font-size="12.00">API Node 2</text>
<text text-anchor="middle" x="580.5" y="-445.9" font-family="Helvetica,sans-Serif" font-size="12.00">Express + REST</text>
<text text-anchor="middle" x="580.5" y="-432.9" font-family="Helvetica,sans-Serif" font-size="12.00">+ Socket.io</text>
</g>
<!-- APIClient&#45;&gt;API2 -->
<g id="edge2" class="edge">
<title>APIClient&#45;&gt;API2</title>
<path fill="none" stroke="#5c6c7c" d="M244.25,-458.75C244.25,-458.75 507.3,-458.75 507.3,-458.75"/>
<polygon fill="#5c6c7c" stroke="#5c6c7c" points="507.3,-462.25 517.3,-458.75 507.3,-455.25 507.3,-462.25"/>
<text text-anchor="middle" x="370.5" y="-428" font-family="Helvetica,sans-Serif" font-size="10.00" fill="#33404d">HTTPS (REST)</text>
</g>
<!-- API1&#45;&gt;Dashboard -->
<g id="edge15" class="edge">
<title>API1&#45;&gt;Dashboard</title>
<path fill="none" stroke="#39c08e" stroke-dasharray="5,2" d="M517.15,-559.5C517.15,-559.5 268.92,-559.5 268.92,-559.5"/>
<polygon fill="#39c08e" stroke="#39c08e" points="268.92,-556 258.92,-559.5 268.92,-563 268.92,-556"/>
<text text-anchor="middle" x="370.5" y="-562" font-family="Helvetica,sans-Serif" font-size="10.00" fill="#248f68">live update</text>
<text text-anchor="middle" x="370.5" y="-551" font-family="Helvetica,sans-Serif" font-size="10.00" fill="#248f68">(Socket.io)</text>
</g>
<!-- PG -->
<g id="node9" class="node">
<title>PG</title>
<path fill="#f0e9ff" stroke="#5b6472" stroke-width="1.2" d="M1066.5,-307.5C1066.5,-312.47 1025.49,-316.5 975,-316.5 924.51,-316.5 883.5,-312.47 883.5,-307.5 883.5,-307.5 883.5,-226.5 883.5,-226.5 883.5,-221.53 924.51,-217.5 975,-217.5 1025.49,-217.5 1066.5,-221.53 1066.5,-226.5 1066.5,-226.5 1066.5,-307.5 1066.5,-307.5"/>
<path fill="none" stroke="#5b6472" stroke-width="1.2" d="M1066.5,-307.5C1066.5,-302.53 1025.49,-298.5 975,-298.5 924.51,-298.5 883.5,-302.53 883.5,-307.5"/>
<text text-anchor="middle" x="975" y="-283.4" font-family="Helvetica,sans-Serif" font-size="12.00">PostgreSQL</text>
<text text-anchor="middle" x="975" y="-270.4" font-family="Helvetica,sans-Serif" font-size="12.00">(source of truth:</text>
<text text-anchor="middle" x="975" y="-257.4" font-family="Helvetica,sans-Serif" font-size="12.00">jobs, queues, executions,</text>
<text text-anchor="middle" x="975" y="-244.4" font-family="Helvetica,sans-Serif" font-size="12.00">DLQ, RBAC)</text>
</g>
<!-- API1&#45;&gt;PG -->
<g id="edge3" class="edge">
<title>API1&#45;&gt;PG</title>
<path fill="none" stroke="#5c6c7c" d="M643.63,-533.25C699.59,-533.25 772.5,-533.25 772.5,-533.25 772.5,-533.25 772.5,-293.62 772.5,-293.62 772.5,-293.62 873.23,-293.62 873.23,-293.62"/>
<polygon fill="#5c6c7c" stroke="#5c6c7c" points="873.23,-297.13 883.23,-293.62 873.23,-290.13 873.23,-297.13"/>
<text text-anchor="middle" x="796" y="-384" font-family="Helvetica,sans-Serif" font-size="10.00" fill="#33404d">RBAC&#45;checked CRUD</text>
</g>
<!-- Redis -->
<g id="node10" class="node">
<title>Redis</title>
<path fill="#ffe9e9" stroke="#5b6472" stroke-width="1.2" d="M1064.5,-446.5C1064.5,-451.47 1024.38,-455.5 975,-455.5 925.62,-455.5 885.5,-451.47 885.5,-446.5 885.5,-446.5 885.5,-365.5 885.5,-365.5 885.5,-360.53 925.62,-356.5 975,-356.5 1024.38,-356.5 1064.5,-360.53 1064.5,-365.5 1064.5,-365.5 1064.5,-446.5 1064.5,-446.5"/>
<path fill="none" stroke="#5b6472" stroke-width="1.2" d="M1064.5,-446.5C1064.5,-441.53 1024.38,-437.5 975,-437.5 925.62,-437.5 885.5,-441.53 885.5,-446.5"/>
<text text-anchor="middle" x="975" y="-422.4" font-family="Helvetica,sans-Serif" font-size="12.00">Redis</text>
<text text-anchor="middle" x="975" y="-409.4" font-family="Helvetica,sans-Serif" font-size="12.00">(distributed locks,</text>
<text text-anchor="middle" x="975" y="-396.4" font-family="Helvetica,sans-Serif" font-size="12.00">rate&#45;limit token buckets,</text>
<text text-anchor="middle" x="975" y="-383.4" font-family="Helvetica,sans-Serif" font-size="12.00">leader election)</text>
</g>
<!-- API1&#45;&gt;Redis -->
<g id="edge5" class="edge">
<title>API1&#45;&gt;Redis</title>
<path fill="none" stroke="#5c6c7c" d="M643.53,-562.75C755.04,-562.75 975.5,-562.75 975.5,-562.75 975.5,-562.75 975.5,-465.6 975.5,-465.6"/>
<polygon fill="#5c6c7c" stroke="#5c6c7c" points="979,-465.6 975.5,-455.6 972,-465.6 979,-465.6"/>
<text text-anchor="middle" x="796" y="-563" font-family="Helvetica,sans-Serif" font-size="10.00" fill="#33404d">rate&#45;limit check</text>
</g>
<!-- API2&#45;&gt;PG -->
<g id="edge4" class="edge">
<title>API2&#45;&gt;PG</title>
<path fill="none" stroke="#5c6c7c" d="M643.72,-437.5C679.24,-437.5 716.5,-437.5 716.5,-437.5 716.5,-437.5 716.5,-273.75 716.5,-273.75 716.5,-273.75 873.5,-273.75 873.5,-273.75"/>
<polygon fill="#5c6c7c" stroke="#5c6c7c" points="873.5,-277.25 883.5,-273.75 873.5,-270.25 873.5,-277.25"/>
</g>
<!-- Scheduler -->
<g id="node5" class="node">
<title>Scheduler</title>
<path fill="#fff3dc" stroke="#5b6472" stroke-width="1.2" d="M648.5,-372.5C648.5,-372.5 512.5,-372.5 512.5,-372.5 506.5,-372.5 500.5,-366.5 500.5,-360.5 500.5,-360.5 500.5,-325.5 500.5,-325.5 500.5,-319.5 506.5,-313.5 512.5,-313.5 512.5,-313.5 648.5,-313.5 648.5,-313.5 654.5,-313.5 660.5,-319.5 660.5,-325.5 660.5,-325.5 660.5,-360.5 660.5,-360.5 660.5,-366.5 654.5,-372.5 648.5,-372.5"/>
<text text-anchor="middle" x="580.5" y="-352.9" font-family="Helvetica,sans-Serif" font-size="12.00">Scheduler Leader</text>
<text text-anchor="middle" x="580.5" y="-339.9" font-family="Helvetica,sans-Serif" font-size="12.00">(cron materialization,</text>
<text text-anchor="middle" x="580.5" y="-326.9" font-family="Helvetica,sans-Serif" font-size="12.00">stale&#45;worker sweep)</text>
</g>
<!-- Scheduler&#45;&gt;PG -->
<g id="edge7" class="edge">
<title>Scheduler&#45;&gt;PG</title>
<path fill="none" stroke="#5c6c7c" d="M660.91,-336.5C776.4,-336.5 975.5,-336.5 975.5,-336.5 975.5,-336.5 975.5,-326.77 975.5,-326.77"/>
<polygon fill="#5c6c7c" stroke="#5c6c7c" points="979,-326.77 975.5,-316.77 972,-326.77 979,-326.77"/>
<text text-anchor="middle" x="796" y="-234" font-family="Helvetica,sans-Serif" font-size="10.00" fill="#33404d">materialize cron jobs,</text>
<text text-anchor="middle" x="796" y="-223" font-family="Helvetica,sans-Serif" font-size="10.00" fill="#33404d">reclaim orphaned jobs</text>
</g>
<!-- Scheduler&#45;&gt;Redis -->
<g id="edge6" class="edge">
<title>Scheduler&#45;&gt;Redis</title>
<path fill="none" stroke="#5c6c7c" d="M660.81,-364.5C660.81,-364.5 875.16,-364.5 875.16,-364.5"/>
<polygon fill="#5c6c7c" stroke="#5c6c7c" points="875.16,-368 885.16,-364.5 875.16,-361 875.16,-368"/>
<text text-anchor="middle" x="796" y="-507" font-family="Helvetica,sans-Serif" font-size="10.00" fill="#33404d">acquire</text>
<text text-anchor="middle" x="796" y="-496" font-family="Helvetica,sans-Serif" font-size="10.00" fill="#33404d">leader lock</text>
</g>
<!-- W1 -->
<g id="node6" class="node">
<title>W1</title>
<path fill="#e8f8f0" stroke="#5b6472" stroke-width="1.2" d="M193.5,-234C193.5,-234 102.5,-234 102.5,-234 96.5,-234 90.5,-228 90.5,-222 90.5,-222 90.5,-200 90.5,-200 90.5,-194 96.5,-188 102.5,-188 102.5,-188 193.5,-188 193.5,-188 199.5,-188 205.5,-194 205.5,-200 205.5,-200 205.5,-222 205.5,-222 205.5,-228 199.5,-234 193.5,-234"/>
<text text-anchor="middle" x="148" y="-214.4" font-family="Helvetica,sans-Serif" font-size="12.00">Worker 1</text>
<text text-anchor="middle" x="148" y="-201.4" font-family="Helvetica,sans-Serif" font-size="12.00">shard: default</text>
</g>
<!-- W1&#45;&gt;API1 -->
<g id="edge12" class="edge">
<title>W1&#45;&gt;API1</title>
<path fill="none" stroke="#5c6c7c" stroke-dasharray="5,2" d="M205.52,-228.5C274.08,-228.5 379.5,-228.5 379.5,-228.5 379.5,-228.5 379.5,-536.5 379.5,-536.5 379.5,-536.5 507.45,-536.5 507.45,-536.5"/>
<polygon fill="#5c6c7c" stroke="#5c6c7c" points="507.45,-540 517.45,-536.5 507.45,-533 507.45,-540"/>
<text text-anchor="middle" x="370.5" y="-495" font-family="Helvetica,sans-Serif" font-size="10.00" fill="#33404d">report result /</text>
<text text-anchor="middle" x="370.5" y="-484" font-family="Helvetica,sans-Serif" font-size="10.00" fill="#33404d">heartbeat</text>
</g>
<!-- W1&#45;&gt;PG -->
<g id="edge8" class="edge">
<title>W1&#45;&gt;PG</title>
<path fill="none" stroke="#5c6c7c" d="M205.82,-223C205.82,-223 873.25,-223 873.25,-223"/>
<polygon fill="#5c6c7c" stroke="#5c6c7c" points="873.25,-226.5 883.25,-223 873.25,-219.5 873.25,-226.5"/>
<text text-anchor="middle" x="580.5" y="-174" font-family="Helvetica,sans-Serif" font-size="10.00" fill="#33404d">SELECT..FOR UPDATE</text>
<text text-anchor="middle" x="580.5" y="-163" font-family="Helvetica,sans-Serif" font-size="10.00" fill="#33404d">SKIP LOCKED (claim)</text>
</g>
<!-- W1&#45;&gt;Redis -->
<g id="edge11" class="edge">
<title>W1&#45;&gt;Redis</title>
<path fill="none" stroke="#5c6c7c" d="M148.5,-234.06C148.5,-283.65 148.5,-396 148.5,-396 148.5,-396 875.37,-396 875.37,-396"/>
<polygon fill="#5c6c7c" stroke="#5c6c7c" points="875.37,-399.5 885.37,-396 875.37,-392.5 875.37,-399.5"/>
<text text-anchor="middle" x="580.5" y="-265" font-family="Helvetica,sans-Serif" font-size="10.00" fill="#33404d">rate&#45;limit tokens</text>
</g>
<!-- W2 -->
<g id="node7" class="node">
<title>W2</title>
<path fill="#e8f8f0" stroke="#5b6472" stroke-width="1.2" d="M193.5,-148C193.5,-148 102.5,-148 102.5,-148 96.5,-148 90.5,-142 90.5,-136 90.5,-136 90.5,-114 90.5,-114 90.5,-108 96.5,-102 102.5,-102 102.5,-102 193.5,-102 193.5,-102 199.5,-102 205.5,-108 205.5,-114 205.5,-114 205.5,-136 205.5,-136 205.5,-142 199.5,-148 193.5,-148"/>
<text text-anchor="middle" x="148" y="-128.4" font-family="Helvetica,sans-Serif" font-size="12.00">Worker 2</text>
<text text-anchor="middle" x="148" y="-115.4" font-family="Helvetica,sans-Serif" font-size="12.00">shard: default</text>
</g>
<!-- W2&#45;&gt;API2 -->
<g id="edge13" class="edge">
<title>W2&#45;&gt;API2</title>
<path fill="none" stroke="#5c6c7c" stroke-dasharray="5,2" d="M205.54,-132.67C216.96,-132.67 225.5,-132.67 225.5,-132.67 225.5,-132.67 225.5,-429.25 225.5,-429.25 225.5,-429.25 507.44,-429.25 507.44,-429.25"/>
<polygon fill="#5c6c7c" stroke="#5c6c7c" points="507.44,-432.75 517.44,-429.25 507.44,-425.75 507.44,-432.75"/>
</g>
<!-- W2&#45;&gt;PG -->
<g id="edge9" class="edge">
<title>W2&#45;&gt;PG</title>
<path fill="none" stroke="#5c6c7c" d="M205.6,-117.33C388.56,-117.33 944.5,-117.33 944.5,-117.33 944.5,-117.33 944.5,-207.16 944.5,-207.16"/>
<polygon fill="#5c6c7c" stroke="#5c6c7c" points="941,-207.16 944.5,-217.16 948,-207.16 941,-207.16"/>
</g>
<!-- W3 -->
<g id="node8" class="node">
<title>W3</title>
<path fill="#e8f8f0" stroke="#5b6472" stroke-width="1.2" d="M194,-62C194,-62 102,-62 102,-62 96,-62 90,-56 90,-50 90,-50 90,-28 90,-28 90,-22 96,-16 102,-16 102,-16 194,-16 194,-16 200,-16 206,-22 206,-28 206,-28 206,-50 206,-50 206,-56 200,-62 194,-62"/>
<text text-anchor="middle" x="148" y="-42.4" font-family="Helvetica,sans-Serif" font-size="12.00">Worker 3</text>
<text text-anchor="middle" x="148" y="-29.4" font-family="Helvetica,sans-Serif" font-size="12.00">shard: reports</text>
</g>
<!-- W3&#45;&gt;PG -->
<g id="edge10" class="edge">
<title>W3&#45;&gt;PG</title>
<path fill="none" stroke="#5c6c7c" d="M206.27,-39C399.27,-39 1005.5,-39 1005.5,-39 1005.5,-39 1005.5,-207.25 1005.5,-207.25"/>
<polygon fill="#5c6c7c" stroke="#5c6c7c" points="1002,-207.25 1005.5,-217.25 1009,-207.25 1002,-207.25"/>
</g>
<!-- PG&#45;&gt;API1 -->
<g id="edge14" class="edge">
<title>PG&#45;&gt;API1</title>
<path fill="none" stroke="#8c2f39" stroke-dasharray="5,2" d="M883.47,-253.88C853.85,-253.88 828.5,-253.88 828.5,-253.88 828.5,-253.88 828.5,-548 828.5,-548 828.5,-548 653.72,-548 653.72,-548"/>
<polygon fill="#8c2f39" stroke="#8c2f39" points="653.72,-544.5 643.72,-548 653.72,-551.5 653.72,-544.5"/>
<text text-anchor="middle" x="796" y="-440" font-family="Helvetica,sans-Serif" font-size="10.00" fill="#8c2f39">job status change</text>
</g>
</g>
</svg>
