<?xml version="1.0" encoding="UTF-8" standalone="no"?>
<!DOCTYPE svg PUBLIC "-//W3C//DTD SVG 1.1//EN"
 "http://www.w3.org/Graphics/SVG/1.1/DTD/svg11.dtd">
<!-- Generated by graphviz version 2.43.0 (0)
 -->
<!-- Title: ER Pages: 1 -->
<svg width="2483pt" height="627pt"
 viewBox="0.00 0.00 2482.60 626.60" xmlns="http://www.w3.org/2000/svg" xmlns:xlink="http://www.w3.org/1999/xlink">
<g id="graph0" class="graph" transform="scale(1 1) rotate(0) translate(28.8 597.8)">
<title>ER</title>
<polygon fill="white" stroke="transparent" points="-28.8,28.8 -28.8,-597.8 2453.8,-597.8 2453.8,28.8 -28.8,28.8"/>
<!-- users -->
<g id="node1" class="node">
<title>users</title>
<polygon fill="#f4f6f8" stroke="transparent" points="8,-437 8,-534 121,-534 121,-437 8,-437"/>
<polygon fill="#e9f1ff" stroke="transparent" points="9.5,-513.5 9.5,-532.5 120.5,-532.5 120.5,-513.5 9.5,-513.5"/>
<text text-anchor="start" x="43.5" y="-520.3" font-family="Helvetica,sans-Serif" font-weight="bold" font-size="14.00">users</text>
<text text-anchor="start" x="11.5" y="-500.3" font-family="Helvetica,sans-Serif" font-size="14.00">PK id</text>
<text text-anchor="start" x="11.5" y="-481.3" font-family="Helvetica,sans-Serif" font-size="14.00">email (unique)</text>
<text text-anchor="start" x="11.5" y="-462.3" font-family="Helvetica,sans-Serif" font-size="14.00">password_hash</text>
<text text-anchor="start" x="11.5" y="-443.3" font-family="Helvetica,sans-Serif" font-size="14.00">name</text>
<polygon fill="none" stroke="#5b6472" points="8,-437 8,-534 121,-534 121,-437 8,-437"/>
</g>
<!-- organizations -->
<g id="node2" class="node">
<title>organizations</title>
<polygon fill="#f4f6f8" stroke="transparent" points="230,-395.5 230,-473.5 385,-473.5 385,-395.5 230,-395.5"/>
<polygon fill="#e9f1ff" stroke="transparent" points="231.5,-453.5 231.5,-472.5 384.5,-472.5 384.5,-453.5 231.5,-453.5"/>
<text text-anchor="start" x="254" y="-460.3" font-family="Helvetica,sans-Serif" font-weight="bold" font-size="14.00">organizations</text>
<text text-anchor="start" x="233.5" y="-440.3" font-family="Helvetica,sans-Serif" font-size="14.00">PK id</text>
<text text-anchor="start" x="233.5" y="-421.3" font-family="Helvetica,sans-Serif" font-size="14.00">name, slug</text>
<text text-anchor="start" x="233.5" y="-402.3" font-family="Helvetica,sans-Serif" font-size="14.00">FK owner_id &#45;&gt; users</text>
<polygon fill="none" stroke="#5b6472" points="230,-395.5 230,-473.5 385,-473.5 385,-395.5 230,-395.5"/>
</g>
<!-- users&#45;&gt;organizations -->
<g id="edge1" class="edge">
<title>users&#45;&gt;organizations</title>
<path fill="none" stroke="#5c6c7c" d="M136.21,-470.54C162.96,-464.88 193.68,-458.37 221.6,-452.47"/>
<polygon fill="#5c6c7c" stroke="#5c6c7c" points="135.98,-470.58 128.48,-468.95 132.56,-471.31 129.14,-472.03 129.14,-472.03 129.14,-472.03 132.56,-471.31 129.79,-475.12 135.98,-470.58 135.98,-470.58"/>
<text text-anchor="middle" x="175.5" y="-468.3" font-family="Helvetica,sans-Serif" font-size="9.00" fill="#33404d">1 owns N</text>
</g>
<!-- org_members -->
<g id="node3" class="node">
<title>org_members</title>
<polygon fill="#f4f6f8" stroke="transparent" points="471.5,-506 471.5,-565 722.5,-565 722.5,-506 471.5,-506"/>
<polygon fill="#fff3dc" stroke="transparent" points="473,-544.5 473,-563.5 722,-563.5 722,-544.5 473,-544.5"/>
<text text-anchor="start" x="544.5" y="-551.3" font-family="Helvetica,sans-Serif" font-weight="bold" font-size="14.00">org_members</text>
<text text-anchor="start" x="475" y="-531.3" font-family="Helvetica,sans-Serif" font-size="14.00">PK org_id, user_id</text>
<text text-anchor="start" x="475" y="-512.3" font-family="Helvetica,sans-Serif" font-size="14.00">role (owner/admin/member/viewer)</text>
<polygon fill="none" stroke="#5b6472" points="471.5,-506 471.5,-565 722.5,-565 722.5,-506 471.5,-506"/>
</g>
<!-- users&#45;&gt;org_members -->
<g id="edge2" class="edge">
<title>users&#45;&gt;org_members</title>
<path fill="none" stroke="#5c6c7c" d="M129.23,-491.51C209.63,-499.08 350.17,-512.33 456.09,-522.31"/>
<polygon fill="#5c6c7c" stroke="#5c6c7c" points="456.13,-524.78 463.33,-523 456.59,-519.9 456.13,-524.78"/>
<text text-anchor="middle" x="307.5" y="-518.3" font-family="Helvetica,sans-Serif" font-size="9.00" fill="#33404d">1..N</text>
</g>
<!-- organizations&#45;&gt;org_members -->
<g id="edge3" class="edge">
<title>organizations&#45;&gt;org_members</title>
<path fill="none" stroke="#5c6c7c" d="M393.2,-464.26C424.67,-475.31 460.71,-487.97 493.59,-499.52"/>
<polygon fill="#5c6c7c" stroke="#5c6c7c" points="493.14,-501.96 500.56,-501.97 494.77,-497.34 493.14,-501.96"/>
<text text-anchor="middle" x="427.5" y="-481.3" font-family="Helvetica,sans-Serif" font-size="9.00" fill="#33404d">1..N</text>
</g>
<!-- projects -->
<g id="node4" class="node">
<title>projects</title>
<polygon fill="#f4f6f8" stroke="transparent" points="502,-390.5 502,-468.5 692,-468.5 692,-390.5 502,-390.5"/>
<polygon fill="#e9f1ff" stroke="transparent" points="503,-448.5 503,-467.5 691,-467.5 691,-448.5 503,-448.5"/>
<text text-anchor="start" x="565" y="-455.3" font-family="Helvetica,sans-Serif" font-weight="bold" font-size="14.00">projects</text>
<text text-anchor="start" x="505" y="-435.3" font-family="Helvetica,sans-Serif" font-size="14.00">PK id</text>
<text text-anchor="start" x="505" y="-416.3" font-family="Helvetica,sans-Serif" font-size="14.00">FK org_id &#45;&gt; organizations</text>
<text text-anchor="start" x="505" y="-397.3" font-family="Helvetica,sans-Serif" font-size="14.00">name, description</text>
<polygon fill="none" stroke="#5b6472" points="502,-390.5 502,-468.5 692,-468.5 692,-390.5 502,-390.5"/>
</g>
<!-- organizations&#45;&gt;projects -->
<g id="edge4" class="edge">
<title>organizations&#45;&gt;projects</title>
<path fill="none" stroke="#5c6c7c" d="M393.2,-433.03C422.42,-432.52 455.57,-431.94 486.47,-431.4"/>
<polygon fill="#5c6c7c" stroke="#5c6c7c" points="486.9,-433.85 493.86,-431.28 486.82,-428.95 486.9,-433.85"/>
<text text-anchor="middle" x="427.5" y="-435.3" font-family="Helvetica,sans-Serif" font-size="9.00" fill="#33404d">1..N</text>
</g>
<!-- queues -->
<g id="node5" class="node">
<title>queues</title>
<polygon fill="#f4f6f8" stroke="transparent" points="843,-362 843,-497 1053,-497 1053,-362 843,-362"/>
<polygon fill="#e9f1ff" stroke="transparent" points="844,-476.5 844,-495.5 1052,-495.5 1052,-476.5 844,-476.5"/>
<text text-anchor="start" x="919" y="-483.3" font-family="Helvetica,sans-Serif" font-weight="bold" font-size="14.00">queues</text>
<text text-anchor="start" x="846" y="-463.3" font-family="Helvetica,sans-Serif" font-size="14.00">PK id</text>
<text text-anchor="start" x="846" y="-444.3" font-family="Helvetica,sans-Serif" font-size="14.00">FK project_id &#45;&gt; projects</text>
<text text-anchor="start" x="846" y="-425.3" font-family="Helvetica,sans-Serif" font-size="14.00">priority, concurrency_limit</text>
<text text-anchor="start" x="846" y="-406.3" font-family="Helvetica,sans-Serif" font-size="14.00">rate_limit_per_sec, shard_key</text>
<text text-anchor="start" x="846" y="-387.3" font-family="Helvetica,sans-Serif" font-size="14.00">FK default_retry_policy_id</text>
<text text-anchor="start" x="846" y="-368.3" font-family="Helvetica,sans-Serif" font-size="14.00">is_paused</text>
<polygon fill="none" stroke="#5b6472" points="843,-362 843,-497 1053,-497 1053,-362 843,-362"/>
</g>
<!-- projects&#45;&gt;queues -->
<g id="edge5" class="edge">
<title>projects&#45;&gt;queues</title>
<path fill="none" stroke="#5c6c7c" d="M700.35,-429.5C740.28,-429.5 786.33,-429.5 827.74,-429.5"/>
<polygon fill="#5c6c7c" stroke="#5c6c7c" points="827.88,-431.95 834.88,-429.5 827.88,-427.05 827.88,-431.95"/>
<text text-anchor="middle" x="783.5" y="-432.3" font-family="Helvetica,sans-Serif" font-size="9.00" fill="#33404d">1..N</text>
</g>
<!-- jobs -->
<g id="node7" class="node">
<title>jobs</title>
<polygon fill="#f4f6f8" stroke="transparent" points="1563,-207 1563,-418 1755,-418 1755,-207 1563,-207"/>
<polygon fill="#ffe9e9" stroke="transparent" points="1564,-397.5 1564,-416.5 1754,-416.5 1754,-397.5 1564,-397.5"/>
<text text-anchor="start" x="1642.5" y="-404.3" font-family="Helvetica,sans-Serif" font-weight="bold" font-size="14.00">jobs</text>
<text text-anchor="start" x="1566" y="-384.3" font-family="Helvetica,sans-Serif" font-size="14.00">PK id</text>
<text text-anchor="start" x="1566" y="-365.3" font-family="Helvetica,sans-Serif" font-size="14.00">FK queue_id &#45;&gt; queues</text>
<text text-anchor="start" x="1566" y="-346.3" font-family="Helvetica,sans-Serif" font-size="14.00">type, status, priority</text>
<text text-anchor="start" x="1566" y="-327.3" font-family="Helvetica,sans-Serif" font-size="14.00">payload (jsonb), handler</text>
<text text-anchor="start" x="1566" y="-308.3" font-family="Helvetica,sans-Serif" font-size="14.00">run_at, cron_expression</text>
<text text-anchor="start" x="1566" y="-289.3" font-family="Helvetica,sans-Serif" font-size="14.00">FK retry_policy_id, attempt</text>
<text text-anchor="start" x="1566" y="-270.3" font-family="Helvetica,sans-Serif" font-size="14.00">depends_on (uuid[])</text>
<text text-anchor="start" x="1566" y="-251.3" font-family="Helvetica,sans-Serif" font-size="14.00">FK claimed_by &#45;&gt; workers</text>
<text text-anchor="start" x="1566" y="-232.3" font-family="Helvetica,sans-Serif" font-size="14.00">lock_token, batch_id</text>
<text text-anchor="start" x="1566" y="-213.3" font-family="Helvetica,sans-Serif" font-size="14.00">FK scheduled_job_id</text>
<polygon fill="none" stroke="#5b6472" points="1563,-207 1563,-418 1755,-418 1755,-207 1563,-207"/>
</g>
<!-- queues&#45;&gt;jobs -->
<g id="edge8" class="edge">
<title>queues&#45;&gt;jobs</title>
<path fill="none" stroke="#5c6c7c" d="M1061.48,-434.83C1159.68,-436.95 1305.41,-433.97 1429,-406.5 1469.09,-397.59 1511.15,-382.24 1548.13,-366.49"/>
<polygon fill="#5c6c7c" stroke="#5c6c7c" points="1549.52,-368.56 1554.98,-363.55 1547.58,-364.06 1549.52,-368.56"/>
<text text-anchor="middle" x="1299" y="-437.3" font-family="Helvetica,sans-Serif" font-size="9.00" fill="#33404d">1..N</text>
</g>
<!-- scheduled_jobs -->
<g id="node10" class="node">
<title>scheduled_jobs</title>
<polygon fill="#f4f6f8" stroke="transparent" points="1177,-291 1177,-388 1421,-388 1421,-291 1177,-291"/>
<polygon fill="#fff3dc" stroke="transparent" points="1178,-367.5 1178,-386.5 1420,-386.5 1420,-367.5 1178,-367.5"/>
<text text-anchor="start" x="1239.5" y="-374.3" font-family="Helvetica,sans-Serif" font-weight="bold" font-size="14.00">scheduled_jobs</text>
<text text-anchor="start" x="1180" y="-354.3" font-family="Helvetica,sans-Serif" font-size="14.00">PK id</text>
<text text-anchor="start" x="1180" y="-335.3" font-family="Helvetica,sans-Serif" font-size="14.00">FK queue_id &#45;&gt; queues</text>
<text text-anchor="start" x="1180" y="-316.3" font-family="Helvetica,sans-Serif" font-size="14.00">cron_expression, handler, payload</text>
<text text-anchor="start" x="1180" y="-297.3" font-family="Helvetica,sans-Serif" font-size="14.00">next_run_at, last_run_at, is_active</text>
<polygon fill="none" stroke="#5b6472" points="1177,-291 1177,-388 1421,-388 1421,-291 1177,-291"/>
</g>
<!-- queues&#45;&gt;scheduled_jobs -->
<g id="edge9" class="edge">
<title>queues&#45;&gt;scheduled_jobs</title>
<path fill="none" stroke="#5c6c7c" d="M1061.35,-400.53C1093.34,-392.28 1128.55,-383.2 1161.8,-374.62"/>
<polygon fill="#5c6c7c" stroke="#5c6c7c" points="1162.7,-376.92 1168.87,-372.8 1161.48,-372.18 1162.7,-376.92"/>
<text text-anchor="middle" x="1115" y="-395.3" font-family="Helvetica,sans-Serif" font-size="9.00" fill="#33404d">1..N</text>
</g>
<!-- dead_letter_queue -->
<g id="node11" class="node">
<title>dead_letter_queue</title>
<polygon fill="#f4f6f8" stroke="transparent" points="1920.5,-391 1920.5,-526 2105.5,-526 2105.5,-391 1920.5,-391"/>
<polygon fill="#8c2f39" stroke="transparent" points="1922,-505.5 1922,-524.5 2105,-524.5 2105,-505.5 1922,-505.5"/>
<text text-anchor="start" x="1940.5" y="-512.3" font-family="Helvetica,sans-Serif" font-weight="bold" font-size="14.00" fill="white">dead_letter_queue</text>
<text text-anchor="start" x="1924" y="-492.3" font-family="Helvetica,sans-Serif" font-size="14.00">PK id</text>
<text text-anchor="start" x="1924" y="-473.3" font-family="Helvetica,sans-Serif" font-size="14.00">FK job_id &#45;&gt; jobs</text>
<text text-anchor="start" x="1924" y="-454.3" font-family="Helvetica,sans-Serif" font-size="14.00">FK queue_id &#45;&gt; queues</text>
<text text-anchor="start" x="1924" y="-435.3" font-family="Helvetica,sans-Serif" font-size="14.00">final_error, total_attempts</text>
<text text-anchor="start" x="1924" y="-416.3" font-family="Helvetica,sans-Serif" font-size="14.00">ai_failure_summary</text>
<text text-anchor="start" x="1924" y="-397.3" font-family="Helvetica,sans-Serif" font-size="14.00">resolved, resolved_at</text>
<polygon fill="none" stroke="#5b6472" points="1920.5,-391 1920.5,-526 2105.5,-526 2105.5,-391 1920.5,-391"/>
</g>
<!-- queues&#45;&gt;dead_letter_queue -->
<g id="edge15" class="edge">
<title>queues&#45;&gt;dead_letter_queue</title>
<path fill="none" stroke="#5c6c7c" d="M1061.3,-453.1C1069.63,-454.4 1077.93,-455.56 1086,-456.5 1384.96,-491.48 1462.16,-484.16 1763,-474.5 1809.75,-473 1861.36,-469.92 1905.41,-466.86"/>
<polygon fill="#5c6c7c" stroke="#5c6c7c" points="1905.6,-469.3 1912.41,-466.37 1905.26,-464.41 1905.6,-469.3"/>
<text text-anchor="middle" x="1492" y="-484.3" font-family="Helvetica,sans-Serif" font-size="9.00" fill="#33404d">1..N</text>
</g>
<!-- retry_policies -->
<g id="node6" class="node">
<title>retry_policies</title>
<polygon fill="#f4f6f8" stroke="transparent" points="470,-235 470,-332 724,-332 724,-235 470,-235"/>
<polygon fill="#f0e9ff" stroke="transparent" points="471,-311.5 471,-330.5 723,-330.5 723,-311.5 471,-311.5"/>
<text text-anchor="start" x="544" y="-318.3" font-family="Helvetica,sans-Serif" font-weight="bold" font-size="14.00">retry_policies</text>
<text text-anchor="start" x="473" y="-298.3" font-family="Helvetica,sans-Serif" font-size="14.00">PK id</text>
<text text-anchor="start" x="473" y="-279.3" font-family="Helvetica,sans-Serif" font-size="14.00">strategy (fixed/linear/exp)</text>
<text text-anchor="start" x="473" y="-260.3" font-family="Helvetica,sans-Serif" font-size="14.00">max_attempts, base/max_delay_ms</text>
<text text-anchor="start" x="473" y="-241.3" font-family="Helvetica,sans-Serif" font-size="14.00">jitter</text>
<polygon fill="none" stroke="#5b6472" points="470,-235 470,-332 724,-332 724,-235 470,-235"/>
</g>
<!-- retry_policies&#45;&gt;queues -->
<g id="edge6" class="edge">
<title>retry_policies&#45;&gt;queues</title>
<path fill="none" stroke="#5c6c7c" stroke-dasharray="5,2" d="M723.5,-336C757.58,-350.26 794.37,-365.65 828.07,-379.75"/>
<polygon fill="#5c6c7c" stroke="#5c6c7c" points="827.36,-382.11 834.77,-382.55 829.26,-377.59 827.36,-382.11"/>
<text text-anchor="middle" x="783.5" y="-372.3" font-family="Helvetica,sans-Serif" font-size="9.00" fill="#33404d">0..1 default</text>
</g>
<!-- retry_policies&#45;&gt;jobs -->
<g id="edge7" class="edge">
<title>retry_policies&#45;&gt;jobs</title>
<path fill="none" stroke="#5c6c7c" stroke-dasharray="5,2" d="M732.15,-273.53C896.68,-263.19 1183.92,-251.26 1429,-272.5 1467.99,-275.88 1510.29,-282.44 1547.81,-289.28"/>
<polygon fill="#5c6c7c" stroke="#5c6c7c" points="1547.43,-291.7 1554.76,-290.56 1548.32,-286.88 1547.43,-291.7"/>
<text text-anchor="middle" x="1115" y="-264.3" font-family="Helvetica,sans-Serif" font-size="9.00" fill="#33404d">0..1 override</text>
</g>
<!-- jobs&#45;&gt;jobs -->
<g id="edge19" class="edge">
<title>jobs&#45;&gt;jobs</title>
<path fill="none" stroke="#5c6c7c" stroke-dasharray="1,5" d="M1631.51,-422.22C1635.62,-439.33 1644.78,-451 1659,-451 1671.22,-451 1679.71,-442.38 1684.46,-429.1"/>
<polygon fill="#5c6c7c" stroke="#5c6c7c" points="1686.86,-429.63 1686.49,-422.22 1682.16,-428.24 1686.86,-429.63"/>
<text text-anchor="middle" x="1659" y="-463.8" font-family="Helvetica,sans-Serif" font-size="9.00" fill="#33404d">depends_on</text>
<text text-anchor="middle" x="1659" y="-453.8" font-family="Helvetica,sans-Serif" font-size="9.00" fill="#33404d">(uuid[] self&#45;ref)</text>
</g>
<!-- job_executions -->
<g id="node8" class="node">
<title>job_executions</title>
<polygon fill="#f4f6f8" stroke="transparent" points="1885,-172 1885,-307 2141,-307 2141,-172 1885,-172"/>
<polygon fill="#ffe9e9" stroke="transparent" points="1886,-286.5 1886,-305.5 2140,-305.5 2140,-286.5 1886,-286.5"/>
<text text-anchor="start" x="1954.5" y="-293.3" font-family="Helvetica,sans-Serif" font-weight="bold" font-size="14.00">job_executions</text>
<text text-anchor="start" x="1888" y="-273.3" font-family="Helvetica,sans-Serif" font-size="14.00">PK id</text>
<text text-anchor="start" x="1888" y="-254.3" font-family="Helvetica,sans-Serif" font-size="14.00">FK job_id &#45;&gt; jobs</text>
<text text-anchor="start" x="1888" y="-235.3" font-family="Helvetica,sans-Serif" font-size="14.00">FK worker_id &#45;&gt; workers</text>
<text text-anchor="start" x="1888" y="-216.3" font-family="Helvetica,sans-Serif" font-size="14.00">attempt_number</text>
<text text-anchor="start" x="1888" y="-197.3" font-family="Helvetica,sans-Serif" font-size="14.00">started_at, finished_at, duration_ms</text>
<text text-anchor="start" x="1888" y="-178.3" font-family="Helvetica,sans-Serif" font-size="14.00">result, error_message</text>
<polygon fill="none" stroke="#5b6472" points="1885,-172 1885,-307 2141,-307 2141,-172 1885,-172"/>
</g>
<!-- jobs&#45;&gt;job_executions -->
<g id="edge11" class="edge">
<title>jobs&#45;&gt;job_executions</title>
<path fill="none" stroke="#5c6c7c" d="M1763.23,-291.09C1796.52,-284.19 1834.01,-276.41 1869.6,-269.03"/>
<polygon fill="#5c6c7c" stroke="#5c6c7c" points="1870.34,-271.38 1876.69,-267.56 1869.34,-266.58 1870.34,-271.38"/>
<text text-anchor="middle" x="1820" y="-288.3" font-family="Helvetica,sans-Serif" font-size="9.00" fill="#33404d">1..N attempts</text>
</g>
<!-- job_logs -->
<g id="node9" class="node">
<title>job_logs</title>
<polygon fill="#f4f6f8" stroke="transparent" points="2226,-113.5 2226,-191.5 2417,-191.5 2417,-113.5 2226,-113.5"/>
<polygon fill="#f4f6f8" stroke="transparent" points="2227.5,-171.5 2227.5,-190.5 2416.5,-190.5 2416.5,-171.5 2227.5,-171.5"/>
<text text-anchor="start" x="2290" y="-178.3" font-family="Helvetica,sans-Serif" font-weight="bold" font-size="14.00">job_logs</text>
<text text-anchor="start" x="2229.5" y="-158.3" font-family="Helvetica,sans-Serif" font-size="14.00">PK id</text>
<text text-anchor="start" x="2229.5" y="-139.3" font-family="Helvetica,sans-Serif" font-size="14.00">FK job_id, FK execution_id</text>
<text text-anchor="start" x="2229.5" y="-120.3" font-family="Helvetica,sans-Serif" font-size="14.00">level, message, created_at</text>
<polygon fill="none" stroke="#5b6472" points="2226,-113.5 2226,-191.5 2417,-191.5 2417,-113.5 2226,-113.5"/>
</g>
<!-- jobs&#45;&gt;job_logs -->
<g id="edge12" class="edge">
<title>jobs&#45;&gt;job_logs</title>
<path fill="none" stroke="#5c6c7c" d="M1763.02,-209.97C1796.6,-183.05 1835.9,-157.62 1877,-143.5 1985.96,-106.07 2119.03,-115.46 2210.82,-129.73"/>
<polygon fill="#5c6c7c" stroke="#5c6c7c" points="2210.61,-132.18 2217.91,-130.86 2211.38,-127.34 2210.61,-132.18"/>
<text text-anchor="middle" x="2013" y="-146.3" font-family="Helvetica,sans-Serif" font-size="9.00" fill="#33404d">1..N</text>
</g>
<!-- jobs&#45;&gt;dead_letter_queue -->
<g id="edge14" class="edge">
<title>jobs&#45;&gt;dead_letter_queue</title>
<path fill="none" stroke="#5c6c7c" d="M1763.23,-355.32C1808.09,-373.92 1860.6,-395.7 1905.79,-414.45"/>
<polygon fill="#5c6c7c" stroke="#5c6c7c" points="1905,-416.77 1912.4,-417.19 1906.88,-412.24 1905,-416.77"/>
<text text-anchor="middle" x="1820" y="-392.3" font-family="Helvetica,sans-Serif" font-size="9.00" fill="#33404d">0..1</text>
</g>
<!-- job_executions&#45;&gt;job_logs -->
<g id="edge13" class="edge">
<title>job_executions&#45;&gt;job_logs</title>
<path fill="none" stroke="#5c6c7c" stroke-dasharray="5,2" d="M2149.33,-201.09C2169.84,-195.26 2190.79,-189.32 2210.67,-183.67"/>
<polygon fill="#5c6c7c" stroke="#5c6c7c" points="2211.6,-185.96 2217.66,-181.69 2210.26,-181.25 2211.6,-185.96"/>
<text text-anchor="middle" x="2183.5" y="-196.3" font-family="Helvetica,sans-Serif" font-size="9.00" fill="#33404d">0..N</text>
</g>
<!-- scheduled_jobs&#45;&gt;jobs -->
<g id="edge10" class="edge">
<title>scheduled_jobs&#45;&gt;jobs</title>
<path fill="none" stroke="#5c6c7c" stroke-dasharray="5,2" d="M1429.25,-329.75C1467.93,-326.84 1509.97,-323.66 1547.34,-320.85"/>
<polygon fill="#5c6c7c" stroke="#5c6c7c" points="1547.96,-323.26 1554.75,-320.29 1547.59,-318.37 1547.96,-323.26"/>
<text text-anchor="middle" x="1492" y="-331.3" font-family="Helvetica,sans-Serif" font-size="9.00" fill="#33404d">1..N materializes</text>
</g>
<!-- workers -->
<g id="node12" class="node">
<title>workers</title>
<polygon fill="#f4f6f8" stroke="transparent" points="1206.5,-97 1206.5,-194 1391.5,-194 1391.5,-97 1206.5,-97"/>
<polygon fill="#e8f8f0" stroke="transparent" points="1208,-173.5 1208,-192.5 1391,-192.5 1391,-173.5 1208,-173.5"/>
<text text-anchor="start" x="1267.5" y="-180.3" font-family="Helvetica,sans-Serif" font-weight="bold" font-size="14.00">workers</text>
<text text-anchor="start" x="1210" y="-160.3" font-family="Helvetica,sans-Serif" font-size="14.00">PK id</text>
<text text-anchor="start" x="1210" y="-141.3" font-family="Helvetica,sans-Serif" font-size="14.00">hostname, pid, shard_key</text>
<text text-anchor="start" x="1210" y="-122.3" font-family="Helvetica,sans-Serif" font-size="14.00">max_concurrency, status</text>
<text text-anchor="start" x="1210" y="-103.3" font-family="Helvetica,sans-Serif" font-size="14.00">started_at, last_seen_at</text>
<polygon fill="none" stroke="#5b6472" points="1206.5,-97 1206.5,-194 1391.5,-194 1391.5,-97 1206.5,-97"/>
</g>
<!-- workers&#45;&gt;jobs -->
<g id="edge16" class="edge">
<title>workers&#45;&gt;jobs</title>
<path fill="none" stroke="#5c6c7c" stroke-dasharray="5,2" d="M1399.65,-165.74C1441.31,-176.41 1489.37,-191.69 1530,-212.5 1536.21,-215.68 1542.42,-219.18 1548.56,-222.91"/>
<polygon fill="#5c6c7c" stroke="#5c6c7c" points="1547.45,-225.1 1554.69,-226.71 1550.03,-220.94 1547.45,-225.1"/>
<text text-anchor="middle" x="1492" y="-215.3" font-family="Helvetica,sans-Serif" font-size="9.00" fill="#33404d">0..N claims</text>
</g>
<!-- workers&#45;&gt;job_executions -->
<g id="edge17" class="edge">
<title>workers&#45;&gt;job_executions</title>
<path fill="none" stroke="#5c6c7c" d="M1399.9,-147.75C1494.04,-151.02 1638.81,-159.01 1763,-178.5 1797.93,-183.98 1835.17,-191.94 1869.91,-200.3"/>
<polygon fill="#5c6c7c" stroke="#5c6c7c" points="1869.45,-202.71 1876.83,-201.98 1870.6,-197.95 1869.45,-202.71"/>
<text text-anchor="middle" x="1659" y="-181.3" font-family="Helvetica,sans-Serif" font-size="9.00" fill="#33404d">1..N</text>
</g>
<!-- worker_heartbeats -->
<g id="node13" class="node">
<title>worker_heartbeats</title>
<polygon fill="#f4f6f8" stroke="transparent" points="1563,-4 1563,-101 1755,-101 1755,-4 1563,-4"/>
<polygon fill="#e8f8f0" stroke="transparent" points="1564,-80.5 1564,-99.5 1754,-99.5 1754,-80.5 1564,-80.5"/>
<text text-anchor="start" x="1584.5" y="-87.3" font-family="Helvetica,sans-Serif" font-weight="bold" font-size="14.00">worker_heartbeats</text>
<text text-anchor="start" x="1566" y="-67.3" font-family="Helvetica,sans-Serif" font-size="14.00">PK id</text>
<text text-anchor="start" x="1566" y="-48.3" font-family="Helvetica,sans-Serif" font-size="14.00">FK worker_id &#45;&gt; workers</text>
<text text-anchor="start" x="1566" y="-29.3" font-family="Helvetica,sans-Serif" font-size="14.00">active_job_count, cpu_load</text>
<text text-anchor="start" x="1566" y="-10.3" font-family="Helvetica,sans-Serif" font-size="14.00">created_at</text>
<polygon fill="none" stroke="#5b6472" points="1563,-4 1563,-101 1755,-101 1755,-4 1563,-4"/>
</g>
<!-- workers&#45;&gt;worker_heartbeats -->
<g id="edge18" class="edge">
<title>workers&#45;&gt;worker_heartbeats</title>
<path fill="none" stroke="#5c6c7c" d="M1399.72,-119.59C1445.77,-107.63 1500.58,-93.39 1547.84,-81.12"/>
<polygon fill="#5c6c7c" stroke="#5c6c7c" points="1548.6,-83.45 1554.76,-79.32 1547.37,-78.71 1548.6,-83.45"/>
<text text-anchor="middle" x="1492" y="-108.3" font-family="Helvetica,sans-Serif" font-size="9.00" fill="#33404d">1..N</text>
</g>
</g>
</svg>
